<svg xmlns="http://www.w3.org/2000/svg" xmlns:xlink="http://www.w3.org/1999/xlink" zoomAndPan="magnify" preserveAspectRatio="xMidYMid meet" version="1.0" viewBox="51.67 162.88 266.36 94.29"><defs><g/><clipPath id="9fd858ad73"><path d="M 132 171.203125 L 160.855469 171.203125 L 160.855469 201 L 132 201 Z M 132 171.203125 " clip-rule="nonzero"/></clipPath><clipPath id="be8646e536"><path d="M 160.804688 181.800781 C 160.804688 191.089844 159.746094 193.445312 158.335938 195.207031 C 156.925781 196.972656 154.925781 198.617188 152.808594 199.558594 C 150.691406 200.5 148.105469 200.96875 145.871094 200.851562 C 143.636719 200.734375 141.167969 199.910156 139.167969 198.734375 C 137.285156 197.558594 135.40625 195.679688 134.230469 193.796875 C 133.054688 191.796875 132.230469 189.328125 132.113281 187.09375 C 131.996094 184.859375 132.464844 182.273438 133.40625 180.15625 C 134.347656 178.039062 135.992188 176.039062 137.757812 174.628906 C 139.519531 173.21875 141.871094 172.160156 144.105469 171.6875 C 146.339844 171.21875 148.929688 171.453125 151.164062 172.160156 C 153.28125 172.863281 157.160156 175.804688 157.160156 175.804688 " clip-rule="nonzero"/></clipPath><clipPath id="cd3b80bd17"><path d="M 128 177 L 173 177 L 173 192 L 128 192 Z M 128 177 " clip-rule="nonzero"/></clipPath><clipPath id="b0ca27e80d"><path d="M 173.777344 179.199219 L 172.882812 196.816406 L 128.253906 194.554688 L 129.148438 176.9375 Z M 173.777344 179.199219 " clip-rule="nonzero"/></clipPath><clipPath id="67fb888558"><path d="M 173.777344 179.199219 L 171.339844 227.351562 L 126.710938 225.089844 L 129.148438 176.9375 Z M 173.777344 179.199219 " clip-rule="nonzero"/></clipPath></defs><g fill="#000000" fill-opacity="1"><g transform="translate(50.448344, 253.721352)"><g><path d="M 5.71875 -9.234375 C 6.019531 -9.234375 6.28125 -9.15625 6.5 -9 C 6.71875 -8.84375 6.828125 -8.648438 6.828125 -8.421875 C 6.828125 -8.148438 6.753906 -7.941406 6.609375 -7.796875 C 6.460938 -7.648438 6.285156 -7.578125 6.078125 -7.578125 C 5.972656 -7.578125 5.820312 -7.613281 5.625 -7.6875 C 5.375 -7.769531 5.179688 -7.8125 5.046875 -7.8125 C 4.691406 -7.8125 4.34375 -7.6875 4 -7.4375 C 3.664062 -7.1875 3.390625 -6.847656 3.171875 -6.421875 C 2.960938 -5.992188 2.859375 -5.515625 2.859375 -4.984375 L 2.859375 -0.828125 C 2.859375 -0.597656 2.78125 -0.398438 2.625 -0.234375 C 2.46875 -0.078125 2.269531 0 2.03125 0 C 1.789062 0 1.59375 -0.078125 1.4375 -0.234375 C 1.289062 -0.390625 1.21875 -0.585938 1.21875 -0.828125 L 1.21875 -8.203125 C 1.21875 -8.429688 1.296875 -8.625 1.453125 -8.78125 C 1.609375 -8.945312 1.800781 -9.03125 2.03125 -9.03125 C 2.269531 -9.03125 2.46875 -8.945312 2.625 -8.78125 C 2.78125 -8.625 2.859375 -8.429688 2.859375 -8.203125 L 2.859375 -7.328125 C 3.109375 -7.890625 3.484375 -8.34375 3.984375 -8.6875 C 4.492188 -9.039062 5.070312 -9.222656 5.71875 -9.234375 Z M 5.71875 -9.234375 "/></g></g></g><g fill="#000000" fill-opacity="1"><g transform="translate(58.601349, 253.721352)"><g><path d="M 9.15625 -4.859375 C 9.144531 -4.648438 9.054688 -4.472656 8.890625 -4.328125 C 8.734375 -4.191406 8.546875 -4.125 8.328125 -4.125 L 2.25 -4.125 C 2.332031 -3.28125 2.648438 -2.601562 3.203125 -2.09375 C 3.765625 -1.59375 4.445312 -1.34375 5.25 -1.34375 C 5.800781 -1.34375 6.25 -1.421875 6.59375 -1.578125 C 6.945312 -1.742188 7.253906 -1.953125 7.515625 -2.203125 C 7.679688 -2.304688 7.847656 -2.359375 8.015625 -2.359375 C 8.210938 -2.359375 8.375 -2.289062 8.5 -2.15625 C 8.632812 -2.019531 8.703125 -1.859375 8.703125 -1.671875 C 8.703125 -1.429688 8.585938 -1.210938 8.359375 -1.015625 C 8.023438 -0.679688 7.582031 -0.398438 7.03125 -0.171875 C 6.476562 0.0546875 5.914062 0.171875 5.34375 0.171875 C 4.414062 0.171875 3.597656 -0.0195312 2.890625 -0.40625 C 2.179688 -0.800781 1.632812 -1.347656 1.25 -2.046875 C 0.863281 -2.753906 0.671875 -3.546875 0.671875 -4.421875 C 0.671875 -5.390625 0.867188 -6.238281 1.265625 -6.96875 C 1.660156 -7.695312 2.179688 -8.253906 2.828125 -8.640625 C 3.484375 -9.035156 4.179688 -9.234375 4.921875 -9.234375 C 5.660156 -9.234375 6.351562 -9.039062 7 -8.65625 C 7.644531 -8.28125 8.160156 -7.757812 8.546875 -7.09375 C 8.941406 -6.425781 9.144531 -5.679688 9.15625 -4.859375 Z M 4.921875 -7.71875 C 4.285156 -7.71875 3.726562 -7.535156 3.25 -7.171875 C 2.78125 -6.816406 2.472656 -6.257812 2.328125 -5.5 L 7.40625 -5.5 L 7.40625 -5.640625 C 7.351562 -6.242188 7.082031 -6.738281 6.59375 -7.125 C 6.101562 -7.519531 5.546875 -7.71875 4.921875 -7.71875 Z M 4.921875 -7.71875 "/></g></g></g><g fill="#000000" fill-opacity="1"><g transform="translate(69.460288, 253.721352)"><g><path d="M 5.15625 -9.234375 C 6.0625 -9.234375 6.816406 -9.085938 7.421875 -8.796875 C 8.023438 -8.515625 8.328125 -8.148438 8.328125 -7.703125 C 8.328125 -7.503906 8.257812 -7.328125 8.125 -7.171875 C 8 -7.023438 7.84375 -6.953125 7.65625 -6.953125 C 7.5 -6.953125 7.378906 -6.972656 7.296875 -7.015625 C 7.210938 -7.054688 7.097656 -7.128906 6.953125 -7.234375 C 6.878906 -7.304688 6.769531 -7.390625 6.625 -7.484375 C 6.476562 -7.546875 6.28125 -7.597656 6.03125 -7.640625 C 5.78125 -7.691406 5.550781 -7.71875 5.34375 -7.71875 C 4.75 -7.71875 4.21875 -7.578125 3.75 -7.296875 C 3.289062 -7.023438 2.9375 -6.644531 2.6875 -6.15625 C 2.4375 -5.664062 2.3125 -5.125 2.3125 -4.53125 C 2.3125 -3.925781 2.429688 -3.378906 2.671875 -2.890625 C 2.921875 -2.410156 3.269531 -2.03125 3.71875 -1.75 C 4.164062 -1.476562 4.675781 -1.34375 5.25 -1.34375 C 5.851562 -1.34375 6.335938 -1.4375 6.703125 -1.625 C 6.785156 -1.664062 6.894531 -1.738281 7.03125 -1.84375 C 7.144531 -1.9375 7.242188 -2.003906 7.328125 -2.046875 C 7.421875 -2.097656 7.53125 -2.125 7.65625 -2.125 C 7.882812 -2.125 8.0625 -2.050781 8.1875 -1.90625 C 8.320312 -1.757812 8.390625 -1.570312 8.390625 -1.34375 C 8.390625 -1.101562 8.238281 -0.863281 7.9375 -0.625 C 7.632812 -0.394531 7.226562 -0.203125 6.71875 -0.046875 C 6.207031 0.0976562 5.65625 0.171875 5.0625 0.171875 C 4.1875 0.171875 3.414062 -0.03125 2.75 -0.4375 C 2.09375 -0.84375 1.582031 -1.40625 1.21875 -2.125 C 0.851562 -2.84375 0.671875 -3.644531 0.671875 -4.53125 C 0.671875 -5.414062 0.859375 -6.21875 1.234375 -6.9375 C 1.617188 -7.65625 2.148438 -8.21875 2.828125 -8.625 C 3.503906 -9.03125 4.28125 -9.234375 5.15625 -9.234375 Z M 5.15625 -9.234375 "/></g></g></g><g fill="#000000" fill-opacity="1"><g transform="translate(79.354052, 253.721352)"><g><path d="M 7.9375 -9.109375 C 8.1875 -9.109375 8.382812 -9.03125 8.53125 -8.875 C 8.6875 -8.71875 8.765625 -8.523438 8.765625 -8.296875 L 8.765625 -0.84375 C 8.765625 0.59375 8.367188 1.664062 7.578125 2.375 C 6.785156 3.09375 5.742188 3.453125 4.453125 3.453125 C 4.023438 3.453125 3.601562 3.410156 3.1875 3.328125 C 2.769531 3.242188 2.429688 3.132812 2.171875 3 C 1.742188 2.800781 1.53125 2.535156 1.53125 2.203125 C 1.53125 2.148438 1.539062 2.078125 1.5625 1.984375 C 1.632812 1.785156 1.734375 1.632812 1.859375 1.53125 C 1.984375 1.425781 2.128906 1.375 2.296875 1.375 C 2.390625 1.375 2.472656 1.394531 2.546875 1.4375 C 2.898438 1.59375 3.210938 1.71875 3.484375 1.8125 C 3.765625 1.90625 4.09375 1.953125 4.46875 1.953125 C 6.25 1.953125 7.140625 1.035156 7.140625 -0.796875 L 7.140625 -1.140625 C 6.828125 -0.722656 6.425781 -0.398438 5.9375 -0.171875 C 5.445312 0.0546875 4.882812 0.171875 4.25 0.171875 C 3.300781 0.171875 2.554688 -0.128906 2.015625 -0.734375 C 1.484375 -1.347656 1.21875 -2.148438 1.21875 -3.140625 L 1.21875 -8.296875 C 1.21875 -8.535156 1.289062 -8.726562 1.4375 -8.875 C 1.59375 -9.03125 1.789062 -9.109375 2.03125 -9.109375 C 2.269531 -9.109375 2.46875 -9.03125 2.625 -8.875 C 2.78125 -8.71875 2.859375 -8.523438 2.859375 -8.296875 L 2.859375 -3.5625 C 2.859375 -2.8125 3.023438 -2.253906 3.359375 -1.890625 C 3.691406 -1.523438 4.195312 -1.34375 4.875 -1.34375 C 5.53125 -1.34375 6.070312 -1.546875 6.5 -1.953125 C 6.925781 -2.367188 7.140625 -2.90625 7.140625 -3.5625 L 7.140625 -8.296875 C 7.140625 -8.535156 7.210938 -8.726562 7.359375 -8.875 C 7.503906 -9.03125 7.695312 -9.109375 7.9375 -9.109375 Z M 7.9375 -9.109375 "/></g></g></g><g fill="#000000" fill-opacity="1"><g transform="translate(90.368114, 253.721352)"><g><path d="M 5.15625 -9.234375 C 6.0625 -9.234375 6.816406 -9.085938 7.421875 -8.796875 C 8.023438 -8.515625 8.328125 -8.148438 8.328125 -7.703125 C 8.328125 -7.503906 8.257812 -7.328125 8.125 -7.171875 C 8 -7.023438 7.84375 -6.953125 7.65625 -6.953125 C 7.5 -6.953125 7.378906 -6.972656 7.296875 -7.015625 C 7.210938 -7.054688 7.097656 -7.128906 6.953125 -7.234375 C 6.878906 -7.304688 6.769531 -7.390625 6.625 -7.484375 C 6.476562 -7.546875 6.28125 -7.597656 6.03125 -7.640625 C 5.78125 -7.691406 5.550781 -7.71875 5.34375 -7.71875 C 4.75 -7.71875 4.21875 -7.578125 3.75 -7.296875 C 3.289062 -7.023438 2.9375 -6.644531 2.6875 -6.15625 C 2.4375 -5.664062 2.3125 -5.125 2.3125 -4.53125 C 2.3125 -3.925781 2.429688 -3.378906 2.671875 -2.890625 C 2.921875 -2.410156 3.269531 -2.03125 3.71875 -1.75 C 4.164062 -1.476562 4.675781 -1.34375 5.25 -1.34375 C 5.851562 -1.34375 6.335938 -1.4375 6.703125 -1.625 C 6.785156 -1.664062 6.894531 -1.738281 7.03125 -1.84375 C 7.144531 -1.9375 7.242188 -2.003906 7.328125 -2.046875 C 7.421875 -2.097656 7.53125 -2.125 7.65625 -2.125 C 7.882812 -2.125 8.0625 -2.050781 8.1875 -1.90625 C 8.320312 -1.757812 8.390625 -1.570312 8.390625 -1.34375 C 8.390625 -1.101562 8.238281 -0.863281 7.9375 -0.625 C 7.632812 -0.394531 7.226562 -0.203125 6.71875 -0.046875 C 6.207031 0.0976562 5.65625 0.171875 5.0625 0.171875 C 4.1875 0.171875 3.414062 -0.03125 2.75 -0.4375 C 2.09375 -0.84375 1.582031 -1.40625 1.21875 -2.125 C 0.851562 -2.84375 0.671875 -3.644531 0.671875 -4.53125 C 0.671875 -5.414062 0.859375 -6.21875 1.234375 -6.9375 C 1.617188 -7.65625 2.148438 -8.21875 2.828125 -8.625 C 3.503906 -9.03125 4.28125 -9.234375 5.15625 -9.234375 Z M 5.15625 -9.234375 "/></g></g></g><g fill="#000000" fill-opacity="1"><g transform="translate(100.261875, 253.721352)"><g><path d="M 3 -0.828125 C 3 -0.597656 2.914062 -0.398438 2.75 -0.234375 C 2.59375 -0.078125 2.398438 0 2.171875 0 C 1.941406 0 1.75 -0.078125 1.59375 -0.234375 C 1.4375 -0.398438 1.359375 -0.597656 1.359375 -0.828125 L 1.359375 -11.921875 C 1.359375 -12.148438 1.4375 -12.34375 1.59375 -12.5 C 1.757812 -12.664062 1.957031 -12.75 2.1875 -12.75 C 2.414062 -12.75 2.609375 -12.664062 2.765625 -12.5 C 2.921875 -12.34375 3 -12.148438 3 -11.921875 Z M 3 -0.828125 "/></g></g></g><g fill="#000000" fill-opacity="1"><g transform="translate(105.657231, 253.721352)"><g><path d="M 2.78125 -0.828125 C 2.78125 -0.597656 2.703125 -0.398438 2.546875 -0.234375 C 2.390625 -0.078125 2.191406 0 1.953125 0 C 1.722656 0 1.53125 -0.078125 1.375 -0.234375 C 1.21875 -0.398438 1.140625 -0.597656 1.140625 -0.828125 L 1.140625 -8.296875 C 1.140625 -8.523438 1.21875 -8.71875 1.375 -8.875 C 1.53125 -9.03125 1.722656 -9.109375 1.953125 -9.109375 C 2.191406 -9.109375 2.390625 -9.03125 2.546875 -8.875 C 2.703125 -8.71875 2.78125 -8.523438 2.78125 -8.296875 Z M 1.9375 -10.25 C 1.601562 -10.25 1.363281 -10.304688 1.21875 -10.421875 C 1.082031 -10.546875 1.015625 -10.742188 1.015625 -11.015625 L 1.015625 -11.28125 C 1.015625 -11.5625 1.09375 -11.757812 1.25 -11.875 C 1.40625 -11.988281 1.640625 -12.046875 1.953125 -12.046875 C 2.273438 -12.046875 2.507812 -11.984375 2.65625 -11.859375 C 2.800781 -11.742188 2.875 -11.550781 2.875 -11.28125 L 2.875 -11.015625 C 2.875 -10.734375 2.796875 -10.535156 2.640625 -10.421875 C 2.492188 -10.304688 2.257812 -10.25 1.9375 -10.25 Z M 1.9375 -10.25 "/></g></g></g><g fill="#000000" fill-opacity="1"><g transform="translate(110.604478, 253.721352)"><g><path d="M 5.828125 -9.234375 C 7.890625 -9.234375 8.921875 -7.992188 8.921875 -5.515625 L 8.921875 -0.828125 C 8.921875 -0.597656 8.84375 -0.398438 8.6875 -0.234375 C 8.539062 -0.078125 8.34375 0 8.09375 0 C 7.863281 0 7.671875 -0.078125 7.515625 -0.234375 C 7.367188 -0.398438 7.296875 -0.597656 7.296875 -0.828125 L 7.296875 -5.5 C 7.296875 -6.175781 7.140625 -6.710938 6.828125 -7.109375 C 6.515625 -7.515625 6.007812 -7.71875 5.3125 -7.71875 C 4.851562 -7.71875 4.4375 -7.617188 4.0625 -7.421875 C 3.6875 -7.222656 3.390625 -6.953125 3.171875 -6.609375 C 2.960938 -6.265625 2.859375 -5.894531 2.859375 -5.5 L 2.859375 -0.828125 C 2.859375 -0.597656 2.78125 -0.398438 2.625 -0.234375 C 2.46875 -0.078125 2.269531 0 2.03125 0 C 1.789062 0 1.59375 -0.078125 1.4375 -0.234375 C 1.289062 -0.390625 1.21875 -0.585938 1.21875 -0.828125 L 1.21875 -8.203125 C 1.21875 -8.429688 1.296875 -8.625 1.453125 -8.78125 C 1.609375 -8.945312 1.800781 -9.03125 2.03125 -9.03125 C 2.269531 -9.03125 2.46875 -8.945312 2.625 -8.78125 C 2.78125 -8.625 2.859375 -8.429688 2.859375 -8.203125 L 2.859375 -7.59375 C 3.160156 -8.0625 3.578125 -8.453125 4.109375 -8.765625 C 4.640625 -9.078125 5.210938 -9.234375 5.828125 -9.234375 Z M 5.828125 -9.234375 "/></g></g></g><g fill="#000000" fill-opacity="1"><g transform="translate(121.790889, 253.721352)"><g><path d="M 8.765625 -9.15625 C 9.015625 -9.15625 9.210938 -9.078125 9.359375 -8.921875 C 9.515625 -8.765625 9.59375 -8.5625 9.59375 -8.3125 L 9.59375 -0.71875 C 9.59375 0.207031 9.394531 0.984375 9 1.609375 C 8.601562 2.234375 8.066406 2.695312 7.390625 3 C 6.710938 3.300781 5.945312 3.453125 5.09375 3.453125 C 4.632812 3.453125 4.097656 3.367188 3.484375 3.203125 C 2.867188 3.046875 2.476562 2.878906 2.3125 2.703125 C 1.957031 2.523438 1.78125 2.296875 1.78125 2.015625 C 1.78125 1.941406 1.800781 1.847656 1.84375 1.734375 C 1.96875 1.453125 2.179688 1.3125 2.484375 1.3125 C 2.628906 1.3125 2.789062 1.34375 2.96875 1.40625 C 3.882812 1.769531 4.601562 1.953125 5.125 1.953125 C 6.039062 1.953125 6.742188 1.726562 7.234375 1.28125 C 7.722656 0.84375 7.96875 0.238281 7.96875 -0.53125 L 7.96875 -1.46875 C 7.71875 -1.019531 7.304688 -0.632812 6.734375 -0.3125 C 6.171875 0.0078125 5.578125 0.171875 4.953125 0.171875 C 4.148438 0.171875 3.421875 -0.0234375 2.765625 -0.421875 C 2.117188 -0.828125 1.609375 -1.390625 1.234375 -2.109375 C 0.859375 -2.828125 0.671875 -3.632812 0.671875 -4.53125 C 0.671875 -5.425781 0.859375 -6.234375 1.234375 -6.953125 C 1.609375 -7.671875 2.117188 -8.226562 2.765625 -8.625 C 3.410156 -9.03125 4.125 -9.234375 4.90625 -9.234375 C 5.539062 -9.234375 6.128906 -9.085938 6.671875 -8.796875 C 7.222656 -8.515625 7.65625 -8.164062 7.96875 -7.75 L 7.96875 -8.3125 C 7.96875 -8.550781 8.039062 -8.75 8.1875 -8.90625 C 8.332031 -9.070312 8.523438 -9.15625 8.765625 -9.15625 Z M 5.140625 -1.34375 C 5.703125 -1.34375 6.203125 -1.476562 6.640625 -1.75 C 7.078125 -2.019531 7.414062 -2.398438 7.65625 -2.890625 C 7.90625 -3.378906 8.03125 -3.925781 8.03125 -4.53125 C 8.03125 -5.144531 7.90625 -5.691406 7.65625 -6.171875 C 7.414062 -6.648438 7.078125 -7.023438 6.640625 -7.296875 C 6.203125 -7.578125 5.703125 -7.71875 5.140625 -7.71875 C 4.585938 -7.71875 4.09375 -7.578125 3.65625 -7.296875 C 3.21875 -7.023438 2.875 -6.644531 2.625 -6.15625 C 2.375 -5.664062 2.25 -5.125 2.25 -4.53125 C 2.25 -3.9375 2.375 -3.394531 2.625 -2.90625 C 2.875 -2.414062 3.21875 -2.03125 3.65625 -1.75 C 4.09375 -1.476562 4.585938 -1.34375 5.140625 -1.34375 Z M 5.140625 -1.34375 "/></g></g></g><g fill="#000000" fill-opacity="1"><g transform="translate(133.632228, 253.721352)"><g/></g></g><g fill="#000000" fill-opacity="1"><g transform="translate(139.441245, 253.721352)"><g><path d="M 5.828125 -9.234375 C 7.890625 -9.234375 8.921875 -7.992188 8.921875 -5.515625 L 8.921875 -0.828125 C 8.921875 -0.597656 8.84375 -0.398438 8.6875 -0.234375 C 8.539062 -0.078125 8.34375 0 8.09375 0 C 7.863281 0 7.671875 -0.078125 7.515625 -0.234375 C 7.367188 -0.398438 7.296875 -0.597656 7.296875 -0.828125 L 7.296875 -5.5 C 7.296875 -6.175781 7.140625 -6.710938 6.828125 -7.109375 C 6.515625 -7.515625 6.007812 -7.71875 5.3125 -7.71875 C 4.851562 -7.71875 4.4375 -7.617188 4.0625 -7.421875 C 3.6875 -7.222656 3.390625 -6.953125 3.171875 -6.609375 C 2.960938 -6.265625 2.859375 -5.894531 2.859375 -5.5 L 2.859375 -0.828125 C 2.859375 -0.597656 2.78125 -0.398438 2.625 -0.234375 C 2.46875 -0.078125 2.269531 0 2.03125 0 C 1.789062 0 1.59375 -0.078125 1.4375 -0.234375 C 1.289062 -0.390625 1.21875 -0.585938 1.21875 -0.828125 L 1.21875 -8.203125 C 1.21875 -8.429688 1.296875 -8.625 1.453125 -8.78125 C 1.609375 -8.945312 1.800781 -9.03125 2.03125 -9.03125 C 2.269531 -9.03125 2.46875 -8.945312 2.625 -8.78125 C 2.78125 -8.625 2.859375 -8.429688 2.859375 -8.203125 L 2.859375 -7.59375 C 3.160156 -8.0625 3.578125 -8.453125 4.109375 -8.765625 C 4.640625 -9.078125 5.210938 -9.234375 5.828125 -9.234375 Z M 5.828125 -9.234375 "/></g></g></g><g fill="#000000" fill-opacity="1"><g transform="translate(150.627661, 253.721352)"><g><path d="M 9.15625 -4.859375 C 9.144531 -4.648438 9.054688 -4.472656 8.890625 -4.328125 C 8.734375 -4.191406 8.546875 -4.125 8.328125 -4.125 L 2.25 -4.125 C 2.332031 -3.28125 2.648438 -2.601562 3.203125 -2.09375 C 3.765625 -1.59375 4.445312 -1.34375 5.25 -1.34375 C 5.800781 -1.34375 6.25 -1.421875 6.59375 -1.578125 C 6.945312 -1.742188 7.253906 -1.953125 7.515625 -2.203125 C 7.679688 -2.304688 7.847656 -2.359375 8.015625 -2.359375 C 8.210938 -2.359375 8.375 -2.289062 8.5 -2.15625 C 8.632812 -2.019531 8.703125 -1.859375 8.703125 -1.671875 C 8.703125 -1.429688 8.585938 -1.210938 8.359375 -1.015625 C 8.023438 -0.679688 7.582031 -0.398438 7.03125 -0.171875 C 6.476562 0.0546875 5.914062 0.171875 5.34375 0.171875 C 4.414062 0.171875 3.597656 -0.0195312 2.890625 -0.40625 C 2.179688 -0.800781 1.632812 -1.347656 1.25 -2.046875 C 0.863281 -2.753906 0.671875 -3.546875 0.671875 -4.421875 C 0.671875 -5.390625 0.867188 -6.238281 1.265625 -6.96875 C 1.660156 -7.695312 2.179688 -8.253906 2.828125 -8.640625 C 3.484375 -9.035156 4.179688 -9.234375 4.921875 -9.234375 C 5.660156 -9.234375 6.351562 -9.039062 7 -8.65625 C 7.644531 -8.28125 8.160156 -7.757812 8.546875 -7.09375 C 8.941406 -6.425781 9.144531 -5.679688 9.15625 -4.859375 Z M 4.921875 -7.71875 C 4.285156 -7.71875 3.726562 -7.535156 3.25 -7.171875 C 2.78125 -6.816406 2.472656 -6.257812 2.328125 -5.5 L 7.40625 -5.5 L 7.40625 -5.640625 C 7.351562 -6.242188 7.082031 -6.738281 6.59375 -7.125 C 6.101562 -7.519531 5.546875 -7.71875 4.921875 -7.71875 Z M 4.921875 -7.71875 "/></g></g></g><g fill="#000000" fill-opacity="1"><g transform="translate(161.486603, 253.721352)"><g><path d="M 3.671875 -7.421875 L 3.671875 -2.296875 C 3.671875 -1.722656 3.929688 -1.4375 4.453125 -1.4375 C 4.523438 -1.4375 4.628906 -1.453125 4.765625 -1.484375 C 4.910156 -1.523438 5.019531 -1.546875 5.09375 -1.546875 C 5.25 -1.546875 5.378906 -1.484375 5.484375 -1.359375 C 5.585938 -1.234375 5.640625 -1.070312 5.640625 -0.875 C 5.640625 -0.632812 5.5 -0.425781 5.21875 -0.25 C 4.945312 -0.0820312 4.640625 0 4.296875 0 C 3.910156 0 3.5625 -0.0351562 3.25 -0.109375 C 2.9375 -0.191406 2.65625 -0.394531 2.40625 -0.71875 C 2.15625 -1.050781 2.03125 -1.550781 2.03125 -2.21875 L 2.03125 -7.421875 L 1.03125 -7.421875 C 0.8125 -7.421875 0.628906 -7.492188 0.484375 -7.640625 C 0.347656 -7.785156 0.28125 -7.96875 0.28125 -8.1875 C 0.28125 -8.40625 0.347656 -8.582031 0.484375 -8.71875 C 0.628906 -8.851562 0.8125 -8.921875 1.03125 -8.921875 L 2.03125 -8.921875 L 2.03125 -10.375 C 2.03125 -10.601562 2.109375 -10.796875 2.265625 -10.953125 C 2.421875 -11.117188 2.617188 -11.203125 2.859375 -11.203125 C 3.085938 -11.203125 3.28125 -11.117188 3.4375 -10.953125 C 3.59375 -10.796875 3.671875 -10.601562 3.671875 -10.375 L 3.671875 -8.921875 L 5.09375 -8.921875 C 5.3125 -8.921875 5.492188 -8.847656 5.640625 -8.703125 C 5.785156 -8.566406 5.859375 -8.390625 5.859375 -8.171875 C 5.859375 -7.953125 5.785156 -7.769531 5.640625 -7.625 C 5.492188 -7.488281 5.3125 -7.421875 5.09375 -7.421875 Z M 3.671875 -7.421875 "/></g></g></g><g fill="#000000" fill-opacity="1"><g transform="translate(169.070849, 253.721352)"><g><path d="M 11.765625 -9.109375 C 11.984375 -9.109375 12.171875 -9.03125 12.328125 -8.875 C 12.484375 -8.726562 12.5625 -8.535156 12.5625 -8.296875 C 12.5625 -8.210938 12.539062 -8.101562 12.5 -7.96875 L 9.859375 -0.515625 C 9.785156 -0.328125 9.664062 -0.1875 9.5 -0.09375 C 9.34375 -0.0078125 9.175781 0.0195312 9 0 C 8.6875 -0.0195312 8.453125 -0.191406 8.296875 -0.515625 L 6.5 -5.203125 L 4.84375 -0.515625 C 4.769531 -0.359375 4.671875 -0.234375 4.546875 -0.140625 C 4.421875 -0.0546875 4.285156 -0.0078125 4.140625 0 C 3.960938 0.0195312 3.789062 -0.015625 3.625 -0.109375 C 3.457031 -0.210938 3.347656 -0.347656 3.296875 -0.515625 L 0.625 -7.96875 C 0.582031 -8.070312 0.5625 -8.179688 0.5625 -8.296875 C 0.5625 -8.523438 0.632812 -8.71875 0.78125 -8.875 C 0.9375 -9.03125 1.132812 -9.109375 1.375 -9.109375 C 1.769531 -9.109375 2.023438 -8.9375 2.140625 -8.59375 L 4.1875 -2.796875 L 5.828125 -7.078125 C 5.960938 -7.421875 6.210938 -7.59375 6.578125 -7.59375 C 6.921875 -7.59375 7.160156 -7.421875 7.296875 -7.078125 L 8.96875 -2.859375 L 10.984375 -8.59375 C 11.109375 -8.9375 11.367188 -9.109375 11.765625 -9.109375 Z M 11.765625 -9.109375 "/></g></g></g><g fill="#000000" fill-opacity="1"><g transform="translate(183.221714, 253.721352)"><g><path d="M 9.765625 -4.515625 C 9.765625 -3.617188 9.5625 -2.8125 9.15625 -2.09375 C 8.757812 -1.382812 8.210938 -0.828125 7.515625 -0.421875 C 6.828125 -0.0234375 6.0625 0.171875 5.21875 0.171875 C 4.382812 0.171875 3.617188 -0.0234375 2.921875 -0.421875 C 2.222656 -0.828125 1.671875 -1.382812 1.265625 -2.09375 C 0.867188 -2.8125 0.671875 -3.617188 0.671875 -4.515625 C 0.671875 -5.410156 0.867188 -6.21875 1.265625 -6.9375 C 1.671875 -7.664062 2.222656 -8.226562 2.921875 -8.625 C 3.617188 -9.03125 4.382812 -9.234375 5.21875 -9.234375 C 6.0625 -9.234375 6.828125 -9.03125 7.515625 -8.625 C 8.210938 -8.226562 8.757812 -7.664062 9.15625 -6.9375 C 9.5625 -6.21875 9.765625 -5.410156 9.765625 -4.515625 Z M 8.140625 -4.515625 C 8.140625 -5.140625 8.007812 -5.691406 7.75 -6.171875 C 7.488281 -6.660156 7.132812 -7.039062 6.6875 -7.3125 C 6.25 -7.582031 5.757812 -7.71875 5.21875 -7.71875 C 4.675781 -7.71875 4.179688 -7.582031 3.734375 -7.3125 C 3.296875 -7.039062 2.945312 -6.660156 2.6875 -6.171875 C 2.4375 -5.691406 2.3125 -5.140625 2.3125 -4.515625 C 2.3125 -3.910156 2.4375 -3.363281 2.6875 -2.875 C 2.945312 -2.394531 3.296875 -2.019531 3.734375 -1.75 C 4.179688 -1.476562 4.675781 -1.34375 5.21875 -1.34375 C 5.757812 -1.34375 6.25 -1.476562 6.6875 -1.75 C 7.132812 -2.019531 7.488281 -2.394531 7.75 -2.875 C 8.007812 -3.363281 8.140625 -3.910156 8.140625 -4.515625 Z M 8.140625 -4.515625 "/></g></g></g><g fill="#000000" fill-opacity="1"><g transform="translate(194.701115, 253.721352)"><g><path d="M 5.71875 -9.234375 C 6.019531 -9.234375 6.28125 -9.15625 6.5 -9 C 6.71875 -8.84375 6.828125 -8.648438 6.828125 -8.421875 C 6.828125 -8.148438 6.753906 -7.941406 6.609375 -7.796875 C 6.460938 -7.648438 6.285156 -7.578125 6.078125 -7.578125 C 5.972656 -7.578125 5.820312 -7.613281 5.625 -7.6875 C 5.375 -7.769531 5.179688 -7.8125 5.046875 -7.8125 C 4.691406 -7.8125 4.34375 -7.6875 4 -7.4375 C 3.664062 -7.1875 3.390625 -6.847656 3.171875 -6.421875 C 2.960938 -5.992188 2.859375 -5.515625 2.859375 -4.984375 L 2.859375 -0.828125 C 2.859375 -0.597656 2.78125 -0.398438 2.625 -0.234375 C 2.46875 -0.078125 2.269531 0 2.03125 0 C 1.789062 0 1.59375 -0.078125 1.4375 -0.234375 C 1.289062 -0.390625 1.21875 -0.585938 1.21875 -0.828125 L 1.21875 -8.203125 C 1.21875 -8.429688 1.296875 -8.625 1.453125 -8.78125 C 1.609375 -8.945312 1.800781 -9.03125 2.03125 -9.03125 C 2.269531 -9.03125 2.46875 -8.945312 2.625 -8.78125 C 2.78125 -8.625 2.859375 -8.429688 2.859375 -8.203125 L 2.859375 -7.328125 C 3.109375 -7.890625 3.484375 -8.34375 3.984375 -8.6875 C 4.492188 -9.039062 5.070312 -9.222656 5.71875 -9.234375 Z M 5.71875 -9.234375 "/></g></g></g><g fill="#000000" fill-opacity="1"><g transform="translate(202.854123, 253.721352)"><g><path d="M 8.59375 -1.4375 C 8.769531 -1.25 8.859375 -1.046875 8.859375 -0.828125 C 8.859375 -0.597656 8.769531 -0.40625 8.59375 -0.25 C 8.414062 -0.09375 8.226562 -0.015625 8.03125 -0.015625 C 7.78125 -0.015625 7.578125 -0.109375 7.421875 -0.296875 L 4.03125 -3.890625 L 3 -2.96875 L 3 -0.828125 C 3 -0.597656 2.921875 -0.398438 2.765625 -0.234375 C 2.609375 -0.078125 2.414062 0 2.1875 0 C 1.945312 0 1.75 -0.078125 1.59375 -0.234375 C 1.4375 -0.398438 1.359375 -0.597656 1.359375 -0.828125 L 1.359375 -11.921875 C 1.359375 -12.148438 1.4375 -12.34375 1.59375 -12.5 C 1.75 -12.664062 1.945312 -12.75 2.1875 -12.75 C 2.414062 -12.75 2.609375 -12.664062 2.765625 -12.5 C 2.921875 -12.34375 3 -12.148438 3 -11.921875 L 3 -4.921875 L 7.21875 -8.8125 C 7.414062 -8.976562 7.617188 -9.0625 7.828125 -9.0625 C 8.023438 -9.0625 8.203125 -8.976562 8.359375 -8.8125 C 8.515625 -8.644531 8.59375 -8.472656 8.59375 -8.296875 C 8.59375 -8.054688 8.484375 -7.847656 8.265625 -7.671875 L 5.296875 -5.015625 Z M 8.59375 -1.4375 "/></g></g></g><g fill="#000000" fill-opacity="1"><g transform="translate(213.454532, 253.721352)"><g/></g></g><g fill="#000000" fill-opacity="1"><g transform="translate(219.263549, 253.721352)"><g><path d="M 11.21875 -1.4375 C 11.457031 -1.21875 11.578125 -0.976562 11.578125 -0.71875 C 11.578125 -0.5625 11.515625 -0.398438 11.390625 -0.234375 C 11.265625 -0.078125 11.097656 0 10.890625 0 C 10.691406 0 10.53125 -0.046875 10.40625 -0.140625 L 8.828125 -1.453125 C 7.742188 -0.367188 6.382812 0.171875 4.75 0.171875 C 3.957031 0.171875 3.238281 -0.00390625 2.59375 -0.359375 C 1.945312 -0.722656 1.4375 -1.203125 1.0625 -1.796875 C 0.695312 -2.390625 0.515625 -3.015625 0.515625 -3.671875 C 0.515625 -4.472656 0.726562 -5.1875 1.15625 -5.8125 C 1.582031 -6.4375 2.21875 -6.929688 3.0625 -7.296875 C 2.832031 -7.628906 2.660156 -7.941406 2.546875 -8.234375 C 2.429688 -8.535156 2.375 -8.847656 2.375 -9.171875 C 2.375 -9.734375 2.515625 -10.242188 2.796875 -10.703125 C 3.085938 -11.171875 3.503906 -11.539062 4.046875 -11.8125 C 4.585938 -12.09375 5.210938 -12.234375 5.921875 -12.234375 C 6.722656 -12.234375 7.421875 -12.09375 8.015625 -11.8125 C 8.617188 -11.53125 9.03125 -11.171875 9.25 -10.734375 C 9.332031 -10.578125 9.375 -10.398438 9.375 -10.203125 C 9.375 -10.015625 9.304688 -9.859375 9.171875 -9.734375 C 9.046875 -9.609375 8.875 -9.546875 8.65625 -9.546875 C 8.394531 -9.546875 8.207031 -9.640625 8.09375 -9.828125 C 7.851562 -10.171875 7.554688 -10.425781 7.203125 -10.59375 C 6.859375 -10.757812 6.429688 -10.84375 5.921875 -10.84375 C 5.335938 -10.84375 4.890625 -10.691406 4.578125 -10.390625 C 4.265625 -10.085938 4.109375 -9.703125 4.109375 -9.234375 C 4.109375 -8.816406 4.253906 -8.394531 4.546875 -7.96875 C 4.847656 -7.550781 5.273438 -7.046875 5.828125 -6.453125 L 6.140625 -6.09375 C 6.804688 -5.363281 7.617188 -4.566406 8.578125 -3.703125 C 8.878906 -4.285156 9.085938 -4.929688 9.203125 -5.640625 C 9.265625 -5.972656 9.492188 -6.140625 9.890625 -6.140625 C 10.117188 -6.140625 10.304688 -6.039062 10.453125 -5.84375 C 10.597656 -5.65625 10.648438 -5.4375 10.609375 -5.1875 C 10.460938 -4.25 10.175781 -3.410156 9.75 -2.671875 C 10.226562 -2.253906 10.71875 -1.84375 11.21875 -1.4375 Z M 5.078125 -1.375 C 6.085938 -1.375 6.957031 -1.726562 7.6875 -2.4375 C 6.457031 -3.507812 5.414062 -4.53125 4.5625 -5.5 C 4.40625 -5.664062 4.21875 -5.882812 4 -6.15625 C 3.34375 -5.957031 2.875 -5.664062 2.59375 -5.28125 C 2.320312 -4.90625 2.1875 -4.445312 2.1875 -3.90625 C 2.1875 -3.457031 2.289062 -3.046875 2.5 -2.671875 C 2.707031 -2.296875 3.03125 -1.984375 3.46875 -1.734375 C 3.90625 -1.492188 4.441406 -1.375 5.078125 -1.375 Z M 5.078125 -1.375 "/></g></g></g><g fill="#000000" fill-opacity="1"><g transform="translate(232.311359, 253.721352)"><g/></g></g><g fill="#000000" fill-opacity="1"><g transform="translate(238.120376, 253.721352)"><g><path d="M 0.703125 -1.40625 C 0.597656 -1.570312 0.546875 -1.726562 0.546875 -1.875 C 0.546875 -2.101562 0.664062 -2.300781 0.90625 -2.46875 C 1.019531 -2.539062 1.15625 -2.578125 1.3125 -2.578125 C 1.519531 -2.578125 1.707031 -2.492188 1.875 -2.328125 C 2.21875 -1.929688 2.585938 -1.632812 2.984375 -1.4375 C 3.378906 -1.25 3.851562 -1.15625 4.40625 -1.15625 C 4.84375 -1.164062 5.226562 -1.265625 5.5625 -1.453125 C 5.894531 -1.640625 6.0625 -1.945312 6.0625 -2.375 C 6.0625 -2.769531 5.890625 -3.066406 5.546875 -3.265625 C 5.210938 -3.472656 4.71875 -3.664062 4.0625 -3.84375 C 3.425781 -4.019531 2.894531 -4.203125 2.46875 -4.390625 C 2.039062 -4.578125 1.679688 -4.847656 1.390625 -5.203125 C 1.097656 -5.566406 0.953125 -6.046875 0.953125 -6.640625 C 0.953125 -7.148438 1.097656 -7.597656 1.390625 -7.984375 C 1.679688 -8.378906 2.070312 -8.6875 2.5625 -8.90625 C 3.050781 -9.125 3.582031 -9.234375 4.15625 -9.234375 C 4.707031 -9.234375 5.253906 -9.128906 5.796875 -8.921875 C 6.347656 -8.710938 6.796875 -8.398438 7.140625 -7.984375 C 7.273438 -7.816406 7.34375 -7.648438 7.34375 -7.484375 C 7.34375 -7.296875 7.25 -7.117188 7.0625 -6.953125 C 6.945312 -6.847656 6.804688 -6.796875 6.640625 -6.796875 C 6.429688 -6.796875 6.265625 -6.863281 6.140625 -7 C 5.898438 -7.269531 5.601562 -7.476562 5.25 -7.625 C 4.894531 -7.78125 4.503906 -7.859375 4.078125 -7.859375 C 3.640625 -7.859375 3.269531 -7.769531 2.96875 -7.59375 C 2.664062 -7.414062 2.515625 -7.113281 2.515625 -6.6875 C 2.523438 -6.28125 2.695312 -5.976562 3.03125 -5.78125 C 3.375 -5.59375 3.898438 -5.40625 4.609375 -5.21875 C 5.210938 -5.0625 5.710938 -4.890625 6.109375 -4.703125 C 6.515625 -4.515625 6.851562 -4.238281 7.125 -3.875 C 7.40625 -3.519531 7.546875 -3.050781 7.546875 -2.46875 C 7.546875 -1.925781 7.390625 -1.457031 7.078125 -1.0625 C 6.773438 -0.664062 6.375 -0.359375 5.875 -0.140625 C 5.375 0.0664062 4.84375 0.171875 4.28125 0.171875 C 3.550781 0.171875 2.878906 0.046875 2.265625 -0.203125 C 1.648438 -0.460938 1.128906 -0.863281 0.703125 -1.40625 Z M 0.703125 -1.40625 "/></g></g></g><g fill="#000000" fill-opacity="1"><g transform="translate(247.376439, 253.721352)"><g><path d="M 9.765625 -4.515625 C 9.765625 -3.617188 9.5625 -2.8125 9.15625 -2.09375 C 8.757812 -1.382812 8.210938 -0.828125 7.515625 -0.421875 C 6.828125 -0.0234375 6.0625 0.171875 5.21875 0.171875 C 4.382812 0.171875 3.617188 -0.0234375 2.921875 -0.421875 C 2.222656 -0.828125 1.671875 -1.382812 1.265625 -2.09375 C 0.867188 -2.8125 0.671875 -3.617188 0.671875 -4.515625 C 0.671875 -5.410156 0.867188 -6.21875 1.265625 -6.9375 C 1.671875 -7.664062 2.222656 -8.226562 2.921875 -8.625 C 3.617188 -9.03125 4.382812 -9.234375 5.21875 -9.234375 C 6.0625 -9.234375 6.828125 -9.03125 7.515625 -8.625 C 8.210938 -8.226562 8.757812 -7.664062 9.15625 -6.9375 C 9.5625 -6.21875 9.765625 -5.410156 9.765625 -4.515625 Z M 8.140625 -4.515625 C 8.140625 -5.140625 8.007812 -5.691406 7.75 -6.171875 C 7.488281 -6.660156 7.132812 -7.039062 6.6875 -7.3125 C 6.25 -7.582031 5.757812 -7.71875 5.21875 -7.71875 C 4.675781 -7.71875 4.179688 -7.582031 3.734375 -7.3125 C 3.296875 -7.039062 2.945312 -6.660156 2.6875 -6.171875 C 2.4375 -5.691406 2.3125 -5.140625 2.3125 -4.515625 C 2.3125 -3.910156 2.4375 -3.363281 2.6875 -2.875 C 2.945312 -2.394531 3.296875 -2.019531 3.734375 -1.75 C 4.179688 -1.476562 4.675781 -1.34375 5.21875 -1.34375 C 5.757812 -1.34375 6.25 -1.476562 6.6875 -1.75 C 7.132812 -2.019531 7.488281 -2.394531 7.75 -2.875 C 8.007812 -3.363281 8.140625 -3.910156 8.140625 -4.515625 Z M 8.140625 -4.515625 "/></g></g></g><g fill="#000000" fill-opacity="1"><g transform="translate(258.85584, 253.721352)"><g><path d="M 3 -0.828125 C 3 -0.597656 2.914062 -0.398438 2.75 -0.234375 C 2.59375 -0.078125 2.398438 0 2.171875 0 C 1.941406 0 1.75 -0.078125 1.59375 -0.234375 C 1.4375 -0.398438 1.359375 -0.597656 1.359375 -0.828125 L 1.359375 -11.921875 C 1.359375 -12.148438 1.4375 -12.34375 1.59375 -12.5 C 1.757812 -12.664062 1.957031 -12.75 2.1875 -12.75 C 2.414062 -12.75 2.609375 -12.664062 2.765625 -12.5 C 2.921875 -12.34375 3 -12.148438 3 -11.921875 Z M 3 -0.828125 "/></g></g></g><g fill="#000000" fill-opacity="1"><g transform="translate(264.2512, 253.721352)"><g><path d="M 7.9375 -9.03125 C 8.1875 -9.03125 8.382812 -8.945312 8.53125 -8.78125 C 8.6875 -8.625 8.765625 -8.429688 8.765625 -8.203125 L 8.765625 -3.625 C 8.765625 -2.425781 8.4375 -1.492188 7.78125 -0.828125 C 7.125 -0.171875 6.191406 0.15625 4.984375 0.15625 C 3.785156 0.15625 2.859375 -0.171875 2.203125 -0.828125 C 1.546875 -1.492188 1.21875 -2.425781 1.21875 -3.625 L 1.21875 -8.203125 C 1.21875 -8.429688 1.296875 -8.625 1.453125 -8.78125 C 1.609375 -8.945312 1.800781 -9.03125 2.03125 -9.03125 C 2.269531 -9.03125 2.46875 -8.945312 2.625 -8.78125 C 2.78125 -8.625 2.859375 -8.429688 2.859375 -8.203125 L 2.859375 -3.625 C 2.859375 -2.113281 3.566406 -1.359375 4.984375 -1.359375 C 5.679688 -1.359375 6.210938 -1.546875 6.578125 -1.921875 C 6.953125 -2.304688 7.140625 -2.875 7.140625 -3.625 L 7.140625 -8.203125 C 7.140625 -8.429688 7.210938 -8.625 7.359375 -8.78125 C 7.515625 -8.945312 7.707031 -9.03125 7.9375 -9.03125 Z M 7.9375 -9.03125 "/></g></g></g><g fill="#000000" fill-opacity="1"><g transform="translate(275.282492, 253.721352)"><g><path d="M 3.671875 -7.421875 L 3.671875 -2.296875 C 3.671875 -1.722656 3.929688 -1.4375 4.453125 -1.4375 C 4.523438 -1.4375 4.628906 -1.453125 4.765625 -1.484375 C 4.910156 -1.523438 5.019531 -1.546875 5.09375 -1.546875 C 5.25 -1.546875 5.378906 -1.484375 5.484375 -1.359375 C 5.585938 -1.234375 5.640625 -1.070312 5.640625 -0.875 C 5.640625 -0.632812 5.5 -0.425781 5.21875 -0.25 C 4.945312 -0.0820312 4.640625 0 4.296875 0 C 3.910156 0 3.5625 -0.0351562 3.25 -0.109375 C 2.9375 -0.191406 2.65625 -0.394531 2.40625 -0.71875 C 2.15625 -1.050781 2.03125 -1.550781 2.03125 -2.21875 L 2.03125 -7.421875 L 1.03125 -7.421875 C 0.8125 -7.421875 0.628906 -7.492188 0.484375 -7.640625 C 0.347656 -7.785156 0.28125 -7.96875 0.28125 -8.1875 C 0.28125 -8.40625 0.347656 -8.582031 0.484375 -8.71875 C 0.628906 -8.851562 0.8125 -8.921875 1.03125 -8.921875 L 2.03125 -8.921875 L 2.03125 -10.375 C 2.03125 -10.601562 2.109375 -10.796875 2.265625 -10.953125 C 2.421875 -11.117188 2.617188 -11.203125 2.859375 -11.203125 C 3.085938 -11.203125 3.28125 -11.117188 3.4375 -10.953125 C 3.59375 -10.796875 3.671875 -10.601562 3.671875 -10.375 L 3.671875 -8.921875 L 5.09375 -8.921875 C 5.3125 -8.921875 5.492188 -8.847656 5.640625 -8.703125 C 5.785156 -8.566406 5.859375 -8.390625 5.859375 -8.171875 C 5.859375 -7.953125 5.785156 -7.769531 5.640625 -7.625 C 5.492188 -7.488281 5.3125 -7.421875 5.09375 -7.421875 Z M 3.671875 -7.421875 "/></g></g></g><g fill="#000000" fill-opacity="1"><g transform="translate(282.866738, 253.721352)"><g><path d="M 2.78125 -0.828125 C 2.78125 -0.597656 2.703125 -0.398438 2.546875 -0.234375 C 2.390625 -0.078125 2.191406 0 1.953125 0 C 1.722656 0 1.53125 -0.078125 1.375 -0.234375 C 1.21875 -0.398438 1.140625 -0.597656 1.140625 -0.828125 L 1.140625 -8.296875 C 1.140625 -8.523438 1.21875 -8.71875 1.375 -8.875 C 1.53125 -9.03125 1.722656 -9.109375 1.953125 -9.109375 C 2.191406 -9.109375 2.390625 -9.03125 2.546875 -8.875 C 2.703125 -8.71875 2.78125 -8.523438 2.78125 -8.296875 Z M 1.9375 -10.25 C 1.601562 -10.25 1.363281 -10.304688 1.21875 -10.421875 C 1.082031 -10.546875 1.015625 -10.742188 1.015625 -11.015625 L 1.015625 -11.28125 C 1.015625 -11.5625 1.09375 -11.757812 1.25 -11.875 C 1.40625 -11.988281 1.640625 -12.046875 1.953125 -12.046875 C 2.273438 -12.046875 2.507812 -11.984375 2.65625 -11.859375 C 2.800781 -11.742188 2.875 -11.550781 2.875 -11.28125 L 2.875 -11.015625 C 2.875 -10.734375 2.796875 -10.535156 2.640625 -10.421875 C 2.492188 -10.304688 2.257812 -10.25 1.9375 -10.25 Z M 1.9375 -10.25 "/></g></g></g><g fill="#000000" fill-opacity="1"><g transform="translate(287.813989, 253.721352)"><g><path d="M 9.765625 -4.515625 C 9.765625 -3.617188 9.5625 -2.8125 9.15625 -2.09375 C 8.757812 -1.382812 8.210938 -0.828125 7.515625 -0.421875 C 6.828125 -0.0234375 6.0625 0.171875 5.21875 0.171875 C 4.382812 0.171875 3.617188 -0.0234375 2.921875 -0.421875 C 2.222656 -0.828125 1.671875 -1.382812 1.265625 -2.09375 C 0.867188 -2.8125 0.671875 -3.617188 0.671875 -4.515625 C 0.671875 -5.410156 0.867188 -6.21875 1.265625 -6.9375 C 1.671875 -7.664062 2.222656 -8.226562 2.921875 -8.625 C 3.617188 -9.03125 4.382812 -9.234375 5.21875 -9.234375 C 6.0625 -9.234375 6.828125 -9.03125 7.515625 -8.625 C 8.210938 -8.226562 8.757812 -7.664062 9.15625 -6.9375 C 9.5625 -6.21875 9.765625 -5.410156 9.765625 -4.515625 Z M 8.140625 -4.515625 C 8.140625 -5.140625 8.007812 -5.691406 7.75 -6.171875 C 7.488281 -6.660156 7.132812 -7.039062 6.6875 -7.3125 C 6.25 -7.582031 5.757812 -7.71875 5.21875 -7.71875 C 4.675781 -7.71875 4.179688 -7.582031 3.734375 -7.3125 C 3.296875 -7.039062 2.945312 -6.660156 2.6875 -6.171875 C 2.4375 -5.691406 2.3125 -5.140625 2.3125 -4.515625 C 2.3125 -3.910156 2.4375 -3.363281 2.6875 -2.875 C 2.945312 -2.394531 3.296875 -2.019531 3.734375 -1.75 C 4.179688 -1.476562 4.675781 -1.34375 5.21875 -1.34375 C 5.757812 -1.34375 6.25 -1.476562 6.6875 -1.75 C 7.132812 -2.019531 7.488281 -2.394531 7.75 -2.875 C 8.007812 -3.363281 8.140625 -3.910156 8.140625 -4.515625 Z M 8.140625 -4.515625 "/></g></g></g><g fill="#000000" fill-opacity="1"><g transform="translate(299.29339, 253.721352)"><g><path d="M 5.828125 -9.234375 C 7.890625 -9.234375 8.921875 -7.992188 8.921875 -5.515625 L 8.921875 -0.828125 C 8.921875 -0.597656 8.84375 -0.398438 8.6875 -0.234375 C 8.539062 -0.078125 8.34375 0 8.09375 0 C 7.863281 0 7.671875 -0.078125 7.515625 -0.234375 C 7.367188 -0.398438 7.296875 -0.597656 7.296875 -0.828125 L 7.296875 -5.5 C 7.296875 -6.175781 7.140625 -6.710938 6.828125 -7.109375 C 6.515625 -7.515625 6.007812 -7.71875 5.3125 -7.71875 C 4.851562 -7.71875 4.4375 -7.617188 4.0625 -7.421875 C 3.6875 -7.222656 3.390625 -6.953125 3.171875 -6.609375 C 2.960938 -6.265625 2.859375 -5.894531 2.859375 -5.5 L 2.859375 -0.828125 C 2.859375 -0.597656 2.78125 -0.398438 2.625 -0.234375 C 2.46875 -0.078125 2.269531 0 2.03125 0 C 1.789062 0 1.59375 -0.078125 1.4375 -0.234375 C 1.289062 -0.390625 1.21875 -0.585938 1.21875 -0.828125 L 1.21875 -8.203125 C 1.21875 -8.429688 1.296875 -8.625 1.453125 -8.78125 C 1.609375 -8.945312 1.800781 -9.03125 2.03125 -9.03125 C 2.269531 -9.03125 2.46875 -8.945312 2.625 -8.78125 C 2.78125 -8.625 2.859375 -8.429688 2.859375 -8.203125 L 2.859375 -7.59375 C 3.160156 -8.0625 3.578125 -8.453125 4.109375 -8.765625 C 4.640625 -9.078125 5.210938 -9.234375 5.828125 -9.234375 Z M 5.828125 -9.234375 "/></g></g></g><g fill="#000000" fill-opacity="1"><g transform="translate(310.479805, 253.721352)"><g><path d="M 0.703125 -1.40625 C 0.597656 -1.570312 0.546875 -1.726562 0.546875 -1.875 C 0.546875 -2.101562 0.664062 -2.300781 0.90625 -2.46875 C 1.019531 -2.539062 1.15625 -2.578125 1.3125 -2.578125 C 1.519531 -2.578125 1.707031 -2.492188 1.875 -2.328125 C 2.21875 -1.929688 2.585938 -1.632812 2.984375 -1.4375 C 3.378906 -1.25 3.851562 -1.15625 4.40625 -1.15625 C 4.84375 -1.164062 5.226562 -1.265625 5.5625 -1.453125 C 5.894531 -1.640625 6.0625 -1.945312 6.0625 -2.375 C 6.0625 -2.769531 5.890625 -3.066406 5.546875 -3.265625 C 5.210938 -3.472656 4.71875 -3.664062 4.0625 -3.84375 C 3.425781 -4.019531 2.894531 -4.203125 2.46875 -4.390625 C 2.039062 -4.578125 1.679688 -4.847656 1.390625 -5.203125 C 1.097656 -5.566406 0.953125 -6.046875 0.953125 -6.640625 C 0.953125 -7.148438 1.097656 -7.597656 1.390625 -7.984375 C 1.679688 -8.378906 2.070312 -8.6875 2.5625 -8.90625 C 3.050781 -9.125 3.582031 -9.234375 4.15625 -9.234375 C 4.707031 -9.234375 5.253906 -9.128906 5.796875 -8.921875 C 6.347656 -8.710938 6.796875 -8.398438 7.140625 -7.984375 C 7.273438 -7.816406 7.34375 -7.648438 7.34375 -7.484375 C 7.34375 -7.296875 7.25 -7.117188 7.0625 -6.953125 C 6.945312 -6.847656 6.804688 -6.796875 6.640625 -6.796875 C 6.429688 -6.796875 6.265625 -6.863281 6.140625 -7 C 5.898438 -7.269531 5.601562 -7.476562 5.25 -7.625 C 4.894531 -7.78125 4.503906 -7.859375 4.078125 -7.859375 C 3.640625 -7.859375 3.269531 -7.769531 2.96875 -7.59375 C 2.664062 -7.414062 2.515625 -7.113281 2.515625 -6.6875 C 2.523438 -6.28125 2.695312 -5.976562 3.03125 -5.78125 C 3.375 -5.59375 3.898438 -5.40625 4.609375 -5.21875 C 5.210938 -5.0625 5.710938 -4.890625 6.109375 -4.703125 C 6.515625 -4.515625 6.851562 -4.238281 7.125 -3.875 C 7.40625 -3.519531 7.546875 -3.050781 7.546875 -2.46875 C 7.546875 -1.925781 7.390625 -1.457031 7.078125 -1.0625 C 6.773438 -0.664062 6.375 -0.359375 5.875 -0.140625 C 5.375 0.0664062 4.84375 0.171875 4.28125 0.171875 C 3.550781 0.171875 2.878906 0.046875 2.265625 -0.203125 C 1.648438 -0.460938 1.128906 -0.863281 0.703125 -1.40625 Z M 0.703125 -1.40625 "/></g></g></g><g fill="#000000" fill-opacity="1"><g transform="translate(319.743423, 253.721352)"><g/></g></g><g clip-path="url(#9fd858ad73)"><g clip-path="url(#be8646e536)"><path fill="#000000" d="M 127.410156 166.984375 L 165.980469 166.984375 L 165.980469 205.554688 L 127.410156 205.554688 Z M 127.410156 166.984375 " fill-opacity="1" fill-rule="nonzero"/></g></g><g fill="#000000" fill-opacity="1"><g transform="translate(67.201757, 227.663918)"><g><path d="M 28.453125 -56.078125 C 30.722656 -58.984375 33.679688 -61.160156 37.328125 -62.609375 C 40.972656 -64.054688 45.148438 -64.78125 49.859375 -64.78125 L 49.859375 -44.671875 C 47.816406 -44.910156 46.128906 -45.03125 44.796875 -45.03125 C 40.015625 -45.03125 36.269531 -43.734375 33.5625 -41.140625 C 30.863281 -38.554688 29.515625 -34.601562 29.515625 -29.28125 L 29.515625 0 L 7.171875 0 L 7.171875 -63.734375 L 28.453125 -63.734375 Z M 28.453125 -56.078125 "/></g></g></g><g fill="#000000" fill-opacity="1"><g transform="translate(108.234684, 227.663918)"><g><path d="M 72.3125 -31.75 C 72.3125 -31.59375 72.191406 -29.75 71.953125 -26.21875 L 25.625 -26.21875 C 26.570312 -22.925781 28.394531 -20.394531 31.09375 -18.625 C 33.800781 -16.863281 37.191406 -15.984375 41.265625 -15.984375 C 44.328125 -15.984375 46.972656 -16.414062 49.203125 -17.28125 C 51.441406 -18.144531 53.695312 -19.554688 55.96875 -21.515625 L 67.71875 -9.28125 C 61.53125 -2.382812 52.476562 1.0625 40.5625 1.0625 C 33.113281 1.0625 26.566406 -0.347656 20.921875 -3.171875 C 15.285156 -5.992188 10.914062 -9.910156 7.8125 -14.921875 C 4.71875 -19.941406 3.171875 -25.628906 3.171875 -31.984375 C 3.171875 -38.253906 4.679688 -43.875 7.703125 -48.84375 C 10.722656 -53.820312 14.894531 -57.722656 20.21875 -60.546875 C 25.550781 -63.367188 31.550781 -64.78125 38.21875 -64.78125 C 44.5625 -64.78125 50.316406 -63.46875 55.484375 -60.84375 C 60.660156 -58.21875 64.757812 -54.414062 67.78125 -49.4375 C 70.800781 -44.457031 72.3125 -38.5625 72.3125 -31.75 Z M 38.328125 -48.90625 C 34.878906 -48.90625 32 -47.925781 29.6875 -45.96875 C 27.375 -44.007812 25.90625 -41.347656 25.28125 -37.984375 L 51.375 -37.984375 C 50.75 -41.347656 49.28125 -44.007812 46.96875 -45.96875 C 44.65625 -47.925781 41.773438 -48.90625 38.328125 -48.90625 Z M 38.328125 -48.90625 "/></g></g></g><g fill="#000000" fill-opacity="1"><g transform="translate(172.665586, 227.663918)"><g><path d="M 48.671875 -64.78125 C 56.585938 -64.78125 62.957031 -62.425781 67.78125 -57.71875 C 72.601562 -53.019531 75.015625 -45.929688 75.015625 -36.453125 L 75.015625 0 L 52.671875 0 L 52.671875 -32.796875 C 52.671875 -41.503906 49.179688 -45.859375 42.203125 -45.859375 C 38.367188 -45.859375 35.296875 -44.601562 32.984375 -42.09375 C 30.671875 -39.582031 29.515625 -35.820312 29.515625 -30.8125 L 29.515625 0 L 7.171875 0 L 7.171875 -63.734375 L 28.453125 -63.734375 L 28.453125 -56.796875 C 30.960938 -59.378906 33.941406 -61.351562 37.390625 -62.71875 C 40.835938 -64.09375 44.597656 -64.78125 48.671875 -64.78125 Z M 48.671875 -64.78125 "/></g></g></g><g fill="#000000" fill-opacity="1"><g transform="translate(243.445689, 227.663918)"><g><path d="M 30.328125 1.0625 C 25.003906 1.0625 19.753906 0.453125 14.578125 -0.765625 C 9.398438 -1.984375 5.242188 -3.570312 2.109375 -5.53125 L 8.8125 -20.8125 C 11.71875 -19.007812 15.164062 -17.578125 19.15625 -16.515625 C 23.15625 -15.460938 27.117188 -14.9375 31.046875 -14.9375 C 34.648438 -14.9375 37.210938 -15.304688 38.734375 -16.046875 C 40.265625 -16.796875 41.03125 -17.875 41.03125 -19.28125 C 41.03125 -20.695312 40.109375 -21.695312 38.265625 -22.28125 C 36.429688 -22.863281 33.515625 -23.429688 29.515625 -23.984375 C 24.421875 -24.609375 20.085938 -25.429688 16.515625 -26.453125 C 12.953125 -27.472656 9.875 -29.351562 7.28125 -32.09375 C 4.695312 -34.84375 3.40625 -38.6875 3.40625 -43.625 C 3.40625 -47.695312 4.617188 -51.320312 7.046875 -54.5 C 9.484375 -57.675781 13.03125 -60.179688 17.6875 -62.015625 C 22.351562 -63.859375 27.941406 -64.78125 34.453125 -64.78125 C 39.078125 -64.78125 43.660156 -64.3125 48.203125 -63.375 C 52.753906 -62.4375 56.554688 -61.101562 59.609375 -59.375 L 52.90625 -44.203125 C 47.257812 -47.335938 41.144531 -48.90625 34.5625 -48.90625 C 31.039062 -48.90625 28.457031 -48.492188 26.8125 -47.671875 C 25.164062 -46.847656 24.34375 -45.769531 24.34375 -44.4375 C 24.34375 -42.945312 25.242188 -41.910156 27.046875 -41.328125 C 28.847656 -40.742188 31.828125 -40.132812 35.984375 -39.5 C 41.234375 -38.71875 45.582031 -37.816406 49.03125 -36.796875 C 52.476562 -35.773438 55.472656 -33.910156 58.015625 -31.203125 C 60.566406 -28.503906 61.84375 -24.726562 61.84375 -19.875 C 61.84375 -15.875 60.628906 -12.285156 58.203125 -9.109375 C 55.773438 -5.929688 52.1875 -3.441406 47.4375 -1.640625 C 42.695312 0.160156 36.992188 1.0625 30.328125 1.0625 Z M 30.328125 1.0625 "/></g></g></g><g clip-path="url(#cd3b80bd17)"><g clip-path="url(#b0ca27e80d)"><g clip-path="url(#67fb888558)"><path fill="#ffffff" d="M 134.300781 189.660156 L 143.121094 189.570312 L 140.882812 185.777344 C 146.699219 183.425781 153.457031 183.03125 159.574219 184.484375 C 164.339844 185.566406 168.980469 188.011719 172.304688 191.359375 C 171.523438 190.316406 170.550781 189.15625 169.390625 188.082031 C 162.375 181.5 151.808594 178.851562 142.328125 180.179688 C 140.84375 180.382812 139.417969 180.699219 138.082031 181.058594 C 138.082031 181.058594 135.851562 177.277344 135.851562 177.277344 C 134.242188 180.15625 130.957031 185.9375 129.351562 188.8125 C 129.351562 188.8125 128.839844 189.71875 128.839844 189.71875 C 129.636719 189.710938 133.414062 189.667969 134.300781 189.660156 Z M 134.300781 189.660156 " fill-opacity="1" fill-rule="nonzero"/></g></g></g></svg>